<svg width="24" height="24" viewBox="0 0 24 24" fill="none" xmlns="http://www.w3.org/2000/svg">
<path d="M7.32759 20L6 20C5.44772 20 4.99271 19.5501 5.0712 19.0034C5.15869 18.394 5.32627 17.7965 5.5709 17.2255C5.94781 16.3459 6.50026 15.5467 7.1967 14.8735C7.89314 14.2003 8.71993 13.6662 9.62987 13.3019C10.5398 12.9375 11.5151 12.75 12.5 12.75C13.4849 12.75 14.4602 12.9375 15.3701 13.3019C16.2801 13.6662 17.1069 14.2003 17.8033 14.8735C18.4997 15.5467 19.0522 16.3459 19.4291 17.2255C19.6737 17.7965 19.8413 18.394 19.9288 19.0034C20.0073 19.5501 19.5523 20 19 20H11.9828" stroke="black" stroke-width="1.5" stroke-linecap="round"/>
<ellipse cx="12.4999" cy="7" rx="3.10345" ry="3" stroke="black" stroke-width="1.5"/>
</svg>
