<svg width="24" height="24" viewBox="0 0 24 24" fill="none" xmlns="http://www.w3.org/2000/svg">
<path d="M21 14.2V17C21 18.1046 20.1046 19 19 19H14.1429M3 14.2V17C3 18.1046 3.89543 19 5 19H9.85714M8.57143 6.2H5C3.89543 6.2 3 7.09543 3 8.2V10.7448C3 11.1427 3.23589 11.5027 3.60068 11.6616L8.6483 13.8601C9.09806 14.056 9.61572 13.8863 9.93215 13.5114C11.4278 11.7394 12.8119 12.4662 13.6393 13.4549C13.9679 13.8476 14.5029 14.053 14.9769 13.8594L20.378 11.654C20.7542 11.5004 21 11.1345 21 10.7282V8.2C21 7.09543 20.1046 6.2 19 6.2H15.4286M8.57143 6.2V6.2C8.57143 4.43269 10.0041 3 11.7714 3H12.2286C13.9959 3 15.4286 4.43269 15.4286 6.2V6.2M8.57143 6.2H15.4286" stroke="black" stroke-width="1.5" stroke-linecap="round"/>
<ellipse cx="11.8541" cy="16.216" rx="1.07143" ry="1" fill="#070A28"/>
</svg>
