<svg width="240" height="220" viewBox="0 0 240 220" fill="none" xmlns="http://www.w3.org/2000/svg">
<path d="M0 12C0 5.37258 5.37258 0 12 0H228C234.627 0 240 5.37258 240 12V208C240 214.627 234.627 220 228 220H12C5.37259 220 0 214.627 0 208V12Z" fill="#39378D"/>
<path opacity="0.2" fill-rule="evenodd" clip-rule="evenodd" d="M173.357 147.079C173.823 146.702 173.907 146.428 173.907 146.284C173.907 146.14 173.823 145.866 173.357 145.49C172.899 145.12 172.18 144.746 171.211 144.415C169.282 143.756 166.558 143.332 163.506 143.332C160.455 143.332 157.731 143.756 155.801 144.415C154.832 144.746 154.113 145.12 153.655 145.49C153.189 145.866 153.105 146.14 153.105 146.284C153.105 146.428 153.189 146.702 153.655 147.079C154.113 147.449 154.832 147.822 155.801 148.153C157.731 148.812 160.455 149.236 163.506 149.236C166.558 149.236 169.282 148.812 171.211 148.153C172.18 147.822 172.899 147.449 173.357 147.079ZM163.506 150.149C169.754 150.149 174.819 148.419 174.819 146.284C174.819 144.15 169.754 142.42 163.506 142.42C157.258 142.42 152.193 144.15 152.193 146.284C152.193 148.419 157.258 150.149 163.506 150.149Z" fill="white"/>
<g filter="url(#filter0_f_111:839)">
<path d="M188.317 139.284C188.317 143.965 177.208 147.759 163.506 147.759C149.803 147.759 138.695 143.965 138.695 139.284C138.695 134.604 149.803 130.809 163.506 130.809C177.208 130.809 188.317 134.604 188.317 139.284Z" fill="#00C2FF"/>
</g>
<path opacity="0.2" fill-rule="evenodd" clip-rule="evenodd" d="M180.156 148.06C180.996 147.382 181.286 146.776 181.286 146.284C181.286 145.792 180.996 145.187 180.156 144.509C179.324 143.837 178.065 143.192 176.428 142.633C173.164 141.518 168.595 140.812 163.506 140.812C158.417 140.812 153.848 141.518 150.583 142.633C148.946 143.192 147.687 143.837 146.856 144.509C146.016 145.187 145.726 145.792 145.726 146.284C145.726 146.776 146.016 147.382 146.856 148.06C147.687 148.731 148.946 149.377 150.583 149.936C153.848 151.051 158.417 151.757 163.506 151.757C168.595 151.757 173.164 151.051 176.428 149.936C178.065 149.377 179.324 148.731 180.156 148.06ZM163.506 152.669C173.829 152.669 182.198 149.811 182.198 146.284C182.198 142.758 173.829 139.899 163.506 139.899C153.182 139.899 144.813 142.758 144.813 146.284C144.813 149.811 153.182 152.669 163.506 152.669Z" fill="white"/>
<path opacity="0.1" fill-rule="evenodd" clip-rule="evenodd" d="M187.076 149.058C188.296 148.073 188.796 147.13 188.796 146.284C188.796 145.438 188.296 144.495 187.076 143.51C185.864 142.532 184.055 141.61 181.739 140.819C177.115 139.24 170.669 138.246 163.506 138.246C156.343 138.246 149.897 139.24 145.274 140.819C142.957 141.61 141.148 142.532 139.937 143.51C138.717 144.495 138.217 145.438 138.217 146.284C138.217 147.13 138.717 148.073 139.937 149.058C141.148 150.037 142.957 150.958 145.274 151.75C149.897 153.329 156.343 154.322 163.506 154.322C170.669 154.322 177.115 153.329 181.739 151.75C184.055 150.958 185.864 150.037 187.076 149.058ZM163.506 155.234C177.977 155.234 189.708 151.227 189.708 146.284C189.708 141.341 177.977 137.334 163.506 137.334C149.035 137.334 137.304 141.341 137.304 146.284C137.304 151.227 149.035 155.234 163.506 155.234Z" fill="white"/>
<path opacity="0.07" fill-rule="evenodd" clip-rule="evenodd" d="M194.857 150.181C196.504 148.851 197.24 147.529 197.24 146.284C197.24 145.04 196.504 143.717 194.857 142.387C193.218 141.064 190.79 139.831 187.71 138.779C181.558 136.678 173 135.362 163.505 135.362C154.01 135.362 145.453 136.678 139.301 138.779C136.22 139.831 133.793 141.064 132.154 142.387C130.507 143.717 129.77 145.04 129.77 146.284C129.77 147.529 130.507 148.851 132.154 150.181C133.793 151.505 136.22 152.737 139.301 153.789C145.453 155.891 154.01 157.207 163.505 157.207C173 157.207 181.558 155.891 187.71 153.789C190.79 152.737 193.218 151.505 194.857 150.181ZM163.505 158.119C182.641 158.119 198.153 152.82 198.153 146.284C198.153 139.748 182.641 134.449 163.505 134.449C144.37 134.449 128.858 139.748 128.858 146.284C128.858 152.82 144.37 158.119 163.505 158.119Z" fill="white"/>
<path opacity="0.03" fill-rule="evenodd" clip-rule="evenodd" d="M202.179 151.238C204.228 149.583 205.187 147.903 205.187 146.284C205.187 144.665 204.228 142.986 202.179 141.331C200.138 139.683 197.129 138.158 193.329 136.86C185.739 134.267 175.195 132.648 163.506 132.648C151.817 132.648 141.273 134.267 133.684 136.86C129.884 138.158 126.875 139.683 124.834 141.331C122.785 142.986 121.826 144.665 121.826 146.284C121.826 147.903 122.785 149.583 124.834 151.238C126.875 152.886 129.884 154.411 133.684 155.708C141.273 158.301 151.817 159.921 163.506 159.921C175.195 159.921 185.739 158.301 193.329 155.708C197.129 154.411 200.138 152.886 202.179 151.238ZM163.506 160.833C187.03 160.833 206.099 154.319 206.099 146.284C206.099 138.249 187.03 131.735 163.506 131.735C139.983 131.735 120.914 138.249 120.914 146.284C120.914 154.319 139.983 160.833 163.506 160.833Z" fill="white"/>
<path d="M125.122 108.477L135.124 86.1656L139.74 88.089L129.738 110.401L125.122 108.477Z" fill="#0E1438"/>
<g filter="url(#filter1_i_111:839)">
<path d="M130.508 83.0881C130.508 87.7621 134.297 91.5512 138.971 91.5512C143.645 91.5512 147.434 87.7621 147.434 83.0881C147.434 78.4141 143.645 74.6251 138.971 74.6251C134.297 74.6251 130.508 78.4141 130.508 83.0881Z" fill="white"/>
</g>
<g filter="url(#filter2_i_111:839)">
<path d="M130.93 112.483C130.839 112.669 130.757 112.825 130.686 112.953C130.522 113.247 130.484 113.627 130.627 113.932C131.888 116.613 133.45 122.085 131.144 126.119C130.124 127.99 128.9 128.459 127.836 128.331C126.448 128.164 126.288 126.442 126.763 125.127C127.289 123.669 127.515 122.095 126.528 121.503C125.242 120.731 124.225 124.027 123.701 126.628C123.527 127.49 123.934 128.348 124.484 129.035C125.629 130.465 126.361 132.609 125.759 133.813C124.589 136.153 121.543 133.088 120.271 131.189C120.092 130.921 119.776 130.785 119.454 130.769C118.283 130.712 117.673 129.749 117.419 128.956C117.32 128.646 117.079 128.391 116.777 128.267C116.134 128.005 115.372 127.452 115.372 126.504C114.236 116.128 119.989 107.27 124.989 106.116C128.186 105.378 130.122 107.701 131.032 109.712C131.433 110.596 131.357 111.612 130.93 112.483Z" fill="white"/>
</g>
<mask id="mask0_111:839" style="mask-type:alpha" maskUnits="userSpaceOnUse" x="115" y="105" width="18" height="30">
<path d="M131.435 111.348C131.125 112.104 130.871 112.621 130.686 112.953C130.522 113.247 130.484 113.627 130.627 113.932C131.888 116.613 133.45 122.085 131.144 126.119C129.529 129.081 127.404 128.529 126.21 127.658C125.928 127.451 125.883 127.064 126.044 126.754C126.912 125.087 127.911 122.332 126.528 121.503C125.242 120.731 124.225 124.027 123.701 126.628C123.527 127.49 123.934 128.348 124.484 129.035C125.629 130.465 126.361 132.609 125.759 133.813C124.589 136.153 121.543 133.088 120.271 131.189C120.092 130.921 119.776 130.785 119.454 130.769C118.283 130.712 117.673 129.749 117.419 128.956C117.32 128.646 117.079 128.391 116.777 128.267C116.134 128.005 115.372 127.452 115.372 126.504C114.988 116.502 119.989 107.27 124.989 106.116C128.839 105.227 130.861 108.78 131.465 110.877C131.509 111.033 131.497 111.198 131.435 111.348Z" fill="white"/>
</mask>
<g mask="url(#mask0_111:839)">
<path fill-rule="evenodd" clip-rule="evenodd" d="M117.805 121.295C117.604 121.226 117.385 121.332 117.316 121.533C117.057 122.282 116.703 123.718 116.531 125.256C116.36 126.779 116.359 128.476 116.869 129.702C116.951 129.898 117.176 129.991 117.372 129.91C117.568 129.828 117.661 129.603 117.579 129.407C117.149 128.372 117.127 126.841 117.295 125.341C117.462 123.856 117.805 122.475 118.043 121.784C118.113 121.583 118.006 121.364 117.805 121.295Z" fill="#C6C6CA"/>
<path fill-rule="evenodd" clip-rule="evenodd" d="M122.555 118.91C122.398 118.767 122.155 118.779 122.012 118.936C121.332 119.684 120.231 121.349 119.542 123.561C118.85 125.779 118.568 128.569 119.56 131.547C119.628 131.749 119.845 131.858 120.047 131.791C120.249 131.724 120.358 131.506 120.29 131.304C119.36 128.512 119.621 125.892 120.276 123.79C120.933 121.681 121.979 120.116 122.581 119.454C122.724 119.296 122.712 119.053 122.555 118.91Z" fill="#C6C6CA"/>
</g>
<g filter="url(#filter3_i_111:839)">
<path d="M143.694 129.25C125.536 97.5522 139.975 80.6518 149.464 76.1638H179.084C198.703 90.7818 190.625 113.863 182.931 129.25C175.238 144.638 156.003 150.408 143.694 129.25Z" fill="white"/>
</g>
<mask id="mask1_111:839" style="mask-type:alpha" maskUnits="userSpaceOnUse" x="134" y="76" width="58" height="68">
<path d="M143.694 129.25C125.536 97.5522 139.975 80.6518 149.464 76.1638H179.084C198.703 90.7818 190.625 113.863 182.931 129.25C175.238 144.638 156.003 150.408 143.694 129.25Z" fill="url(#paint0_linear_111:839)"/>
</mask>
<g mask="url(#mask1_111:839)">
<path d="M189.29 97.3492C187.178 102.247 183.066 105.182 180.104 103.905C177.142 102.628 176.453 97.6229 178.565 92.7253C180.676 87.8278 184.789 84.8926 187.75 86.1695C190.712 87.4463 191.401 92.4517 189.29 97.3492Z" fill="#BCBCC0"/>
<path d="M186.778 82.7035C169.467 93.4746 149.464 89.6278 141 81.9341L146.771 70.7783H178.315L186.778 82.7035Z" fill="#CFCFCF"/>
</g>
<g filter="url(#filter4_i_111:839)">
<path d="M194.472 50.0053C194.472 66.5768 181.038 80.0107 164.467 80.0107C147.895 80.0107 134.461 66.5768 134.461 50.0053C134.461 33.4338 147.895 20 164.467 20C181.038 20 194.472 33.4338 194.472 50.0053Z" fill="white"/>
</g>
<mask id="mask2_111:839" style="mask-type:alpha" maskUnits="userSpaceOnUse" x="134" y="20" width="61" height="61">
<path d="M194.472 50.0053C194.472 66.5768 181.038 80.0107 164.467 80.0107C147.895 80.0107 134.461 66.5768 134.461 50.0053C134.461 33.4338 147.895 20 164.467 20C181.038 20 194.472 33.4338 194.472 50.0053Z" fill="#C4C4C4"/>
</mask>
<g mask="url(#mask2_111:839)">
<path d="M168.314 51.1594C146.464 52.3903 137.411 46.1585 135.231 41.9269C131.538 51.4671 134.461 59.6224 136 63.0846C139.462 68.4701 156.004 76.5485 171.006 71.5476C181.008 68.2137 182.547 50.3575 168.314 51.1594Z" fill="#0E1438"/>
<path d="M154.89 59.6872C155.332 61.8193 154.464 63.8016 152.951 64.1148C151.439 64.4281 149.855 62.9536 149.413 60.8216C148.972 58.6895 149.84 56.7072 151.352 56.394C152.865 56.0807 154.449 57.5552 154.89 59.6872Z" fill="white"/>
<path d="M153.961 59.8798C154.252 61.2879 153.679 62.597 152.68 62.8039C151.681 63.0108 150.635 62.037 150.343 60.629C150.052 59.2209 150.625 57.9118 151.624 57.7049C152.623 57.498 153.669 58.4718 153.961 59.8798Z" fill="#0E1438"/>
<path d="M143.216 57.2758C143.657 59.4079 142.902 61.3668 141.529 61.6512C140.156 61.9356 138.685 60.4378 138.243 58.3057C137.802 56.1737 138.557 54.2148 139.93 53.9304C141.303 53.646 142.774 55.1438 143.216 57.2758Z" fill="white"/>
<path d="M142.394 57.446C142.689 58.8732 142.184 60.1844 141.265 60.3748C140.346 60.5652 139.361 59.5625 139.065 58.1354C138.77 56.7083 139.275 55.397 140.194 55.2066C141.114 55.0163 142.098 56.0189 142.394 57.446Z" fill="#0E1438"/>
</g>
<path d="M202.935 122.326L192.933 100.014L188.317 101.938L198.319 124.249L202.935 122.326Z" fill="#0E1438"/>
<g filter="url(#filter5_i_111:839)">
<path d="M197.55 96.9368C197.55 101.611 193.761 105.4 189.087 105.4C184.413 105.4 180.624 101.611 180.624 96.9368C180.624 92.2628 184.413 88.4737 189.087 88.4737C193.761 88.4737 197.55 92.2628 197.55 96.9368Z" fill="white"/>
</g>
<g filter="url(#filter6_i_111:839)">
<path d="M197.127 126.332C197.218 126.518 197.3 126.674 197.371 126.801C197.535 127.096 197.574 127.476 197.43 127.781C196.169 130.461 194.608 135.934 196.913 139.968C197.933 141.838 199.157 142.307 200.221 142.179C201.609 142.013 201.769 140.291 201.294 138.976C200.768 137.517 200.542 135.944 201.529 135.352C202.815 134.58 203.833 137.876 204.357 140.476C204.53 141.339 204.123 142.197 203.573 142.884C202.428 144.313 201.696 146.458 202.298 147.662C203.468 150.001 206.514 146.937 207.786 145.037C207.965 144.77 208.281 144.633 208.603 144.618C209.774 144.561 210.384 143.598 210.638 142.805C210.737 142.494 210.979 142.239 211.281 142.116C211.923 141.854 212.685 141.301 212.685 140.353C213.821 129.977 208.069 121.118 203.068 119.964C199.871 119.227 197.936 121.55 197.025 123.561C196.624 124.444 196.7 125.461 197.127 126.332Z" fill="white"/>
</g>
<mask id="mask3_111:839" style="mask-type:alpha" maskUnits="userSpaceOnUse" x="195" y="119" width="18" height="30">
<path d="M196.622 125.196C196.932 125.953 197.186 126.47 197.371 126.801C197.535 127.096 197.574 127.476 197.43 127.781C196.169 130.461 194.608 135.934 196.913 139.968C198.528 142.929 200.654 142.378 201.847 141.506C202.13 141.3 202.174 140.913 202.013 140.603C201.145 138.936 200.146 136.181 201.529 135.352C202.815 134.58 203.833 137.876 204.357 140.476C204.53 141.339 204.123 142.197 203.573 142.884C202.428 144.313 201.696 146.458 202.298 147.662C203.468 150.001 206.514 146.937 207.786 145.037C207.965 144.77 208.281 144.633 208.603 144.618C209.774 144.561 210.384 143.598 210.638 142.805C210.737 142.494 210.979 142.239 211.281 142.116C211.923 141.854 212.685 141.301 212.685 140.353C213.069 130.351 208.069 121.118 203.068 119.964C199.218 119.076 197.196 122.629 196.592 124.726C196.548 124.881 196.56 125.047 196.622 125.196Z" fill="white"/>
</mask>
<g mask="url(#mask3_111:839)">
<path fill-rule="evenodd" clip-rule="evenodd" d="M210.252 135.144C210.453 135.074 210.672 135.181 210.742 135.382C211 136.13 211.355 137.567 211.527 139.104C211.697 140.627 211.698 142.325 211.189 143.551C211.107 143.747 210.882 143.84 210.686 143.758C210.49 143.677 210.397 143.452 210.478 143.255C210.908 142.22 210.93 140.69 210.762 139.19C210.596 137.704 210.253 136.324 210.014 135.633C209.945 135.432 210.052 135.213 210.252 135.144Z" fill="#C6C6CA"/>
<path fill-rule="evenodd" clip-rule="evenodd" d="M205.501 132.759C205.659 132.616 205.902 132.627 206.045 132.785C206.725 133.533 207.826 135.198 208.515 137.41C209.206 139.628 209.489 142.418 208.496 145.396C208.429 145.598 208.211 145.707 208.01 145.639C207.808 145.572 207.699 145.354 207.766 145.153C208.697 142.361 208.435 139.74 207.781 137.638C207.124 135.53 206.078 133.965 205.476 133.302C205.333 133.145 205.344 132.902 205.501 132.759Z" fill="#C6C6CA"/>
</g>
<path d="M240 139.502V13.532H92.7456V139.502C145.573 177.616 224.508 155.158 240 139.502Z" fill="url(#paint1_linear_111:839)"/>
<path d="M113.363 16.1479C113.363 14.7032 114.534 13.532 115.979 13.532C117.423 13.532 118.595 14.7032 118.595 16.1479V75.1221C118.595 76.5668 117.423 77.738 115.979 77.738C114.534 77.738 113.363 76.5668 113.363 75.1221V16.1479Z" fill="url(#paint2_linear_111:839)"/>
<path opacity="0.7" fill-rule="evenodd" clip-rule="evenodd" d="M75.4219 117.042C75.6009 116.962 75.811 117.042 75.8911 117.221C86.5459 141.008 109.75 152.532 134.528 157.047C159.303 161.56 185.576 159.049 202.225 154.835C202.415 154.787 202.608 154.902 202.656 155.092C202.704 155.282 202.589 155.475 202.399 155.523C185.667 159.758 159.291 162.28 134.4 157.745C109.513 153.211 86.0347 141.604 75.243 117.511C75.1629 117.332 75.243 117.122 75.4219 117.042Z" fill="url(#paint3_linear_111:839)"/>
<path d="M89.9282 44.974C89.9282 43.5293 91.0994 42.3582 92.5441 42.3582C93.9888 42.3582 95.16 43.5293 95.16 44.974V142.295C95.16 143.739 93.9888 144.911 92.5441 144.911C91.0994 144.911 89.9282 143.739 89.9282 142.295V44.974Z" fill="url(#paint4_linear_111:839)"/>
<path opacity="0.7" fill-rule="evenodd" clip-rule="evenodd" d="M75.2417 58.2535C75.4207 58.1733 75.6308 58.2534 75.7109 58.4324C86.3645 82.217 109.465 93.2877 134.107 97.4416C158.745 101.595 184.846 98.8162 201.352 94.9723C201.543 94.9278 201.734 95.0466 201.779 95.2376C201.823 95.4286 201.704 95.6195 201.513 95.6639C184.941 99.5233 158.742 102.315 133.988 98.1418C109.238 93.9696 85.8557 82.8184 75.0628 58.7226C74.9827 58.5437 75.0628 58.3336 75.2417 58.2535Z" fill="url(#paint5_linear_111:839)"/>
<defs>
<filter id="filter0_f_111:839" x="109.775" y="101.889" width="107.462" height="74.7899" filterUnits="userSpaceOnUse" color-interpolation-filters="sRGB">
<feFlood flood-opacity="0" result="BackgroundImageFix"/>
<feBlend mode="normal" in="SourceGraphic" in2="BackgroundImageFix" result="shape"/>
<feGaussianBlur stdDeviation="14.46" result="effect1_foregroundBlur_111:839"/>
</filter>
<filter id="filter1_i_111:839" x="130.508" y="74.6251" width="17.9263" height="19.9261" filterUnits="userSpaceOnUse" color-interpolation-filters="sRGB">
<feFlood flood-opacity="0" result="BackgroundImageFix"/>
<feBlend mode="normal" in="SourceGraphic" in2="BackgroundImageFix" result="shape"/>
<feColorMatrix in="SourceAlpha" type="matrix" values="0 0 0 0 0 0 0 0 0 0 0 0 0 0 0 0 0 0 127 0" result="hardAlpha"/>
<feOffset dx="1" dy="3"/>
<feGaussianBlur stdDeviation="4"/>
<feComposite in2="hardAlpha" operator="arithmetic" k2="-1" k3="1"/>
<feColorMatrix type="matrix" values="0 0 0 0 0 0 0 0 0 0 0 0 0 0 0 0 0 0 0.24 0"/>
<feBlend mode="normal" in2="shape" result="effect1_innerShadow_111:839"/>
</filter>
<filter id="filter2_i_111:839" x="113.227" y="105.976" width="19.0991" height="30.6817" filterUnits="userSpaceOnUse" color-interpolation-filters="sRGB">
<feFlood flood-opacity="0" result="BackgroundImageFix"/>
<feBlend mode="normal" in="SourceGraphic" in2="BackgroundImageFix" result="shape"/>
<feColorMatrix in="SourceAlpha" type="matrix" values="0 0 0 0 0 0 0 0 0 0 0 0 0 0 0 0 0 0 127 0" result="hardAlpha"/>
<feOffset dx="-2" dy="2"/>
<feGaussianBlur stdDeviation="7"/>
<feComposite in2="hardAlpha" operator="arithmetic" k2="-1" k3="1"/>
<feColorMatrix type="matrix" values="0 0 0 0 0 0 0 0 0 0 0 0 0 0 0 0 0 0 0.26 0"/>
<feBlend mode="normal" in2="shape" result="effect1_innerShadow_111:839"/>
</filter>
<filter id="filter3_i_111:839" x="131.998" y="76.1638" width="59.3125" height="78.8751" filterUnits="userSpaceOnUse" color-interpolation-filters="sRGB">
<feFlood flood-opacity="0" result="BackgroundImageFix"/>
<feBlend mode="normal" in="SourceGraphic" in2="BackgroundImageFix" result="shape"/>
<feColorMatrix in="SourceAlpha" type="matrix" values="0 0 0 0 0 0 0 0 0 0 0 0 0 0 0 0 0 0 127 0" result="hardAlpha"/>
<feOffset dx="-3" dy="12"/>
<feGaussianBlur stdDeviation="12"/>
<feComposite in2="hardAlpha" operator="arithmetic" k2="-1" k3="1"/>
<feColorMatrix type="matrix" values="0 0 0 0 0.0266084 0 0 0 0 0.0397766 0 0 0 0 0.15829 0 0 0 0.24 0"/>
<feBlend mode="normal" in2="shape" result="effect1_innerShadow_111:839"/>
</filter>
<filter id="filter4_i_111:839" x="129.461" y="20" width="65.0107" height="64.0107" filterUnits="userSpaceOnUse" color-interpolation-filters="sRGB">
<feFlood flood-opacity="0" result="BackgroundImageFix"/>
<feBlend mode="normal" in="SourceGraphic" in2="BackgroundImageFix" result="shape"/>
<feColorMatrix in="SourceAlpha" type="matrix" values="0 0 0 0 0 0 0 0 0 0 0 0 0 0 0 0 0 0 127 0" result="hardAlpha"/>
<feOffset dx="-5" dy="4"/>
<feGaussianBlur stdDeviation="12"/>
<feComposite in2="hardAlpha" operator="arithmetic" k2="-1" k3="1"/>
<feColorMatrix type="matrix" values="0 0 0 0 0.0266084 0 0 0 0 0.0397766 0 0 0 0 0.15829 0 0 0 0.28 0"/>
<feBlend mode="normal" in2="shape" result="effect1_innerShadow_111:839"/>
</filter>
<filter id="filter5_i_111:839" x="180.624" y="88.4737" width="18.9263" height="19.9261" filterUnits="userSpaceOnUse" color-interpolation-filters="sRGB">
<feFlood flood-opacity="0" result="BackgroundImageFix"/>
<feBlend mode="normal" in="SourceGraphic" in2="BackgroundImageFix" result="shape"/>
<feColorMatrix in="SourceAlpha" type="matrix" values="0 0 0 0 0 0 0 0 0 0 0 0 0 0 0 0 0 0 127 0" result="hardAlpha"/>
<feOffset dx="2" dy="3"/>
<feGaussianBlur stdDeviation="4"/>
<feComposite in2="hardAlpha" operator="arithmetic" k2="-1" k3="1"/>
<feColorMatrix type="matrix" values="0 0 0 0 0 0 0 0 0 0 0 0 0 0 0 0 0 0 0.22 0"/>
<feBlend mode="normal" in2="shape" result="effect1_innerShadow_111:839"/>
</filter>
<filter id="filter6_i_111:839" x="195.731" y="119.824" width="17.0991" height="30.6817" filterUnits="userSpaceOnUse" color-interpolation-filters="sRGB">
<feFlood flood-opacity="0" result="BackgroundImageFix"/>
<feBlend mode="normal" in="SourceGraphic" in2="BackgroundImageFix" result="shape"/>
<feColorMatrix in="SourceAlpha" type="matrix" values="0 0 0 0 0 0 0 0 0 0 0 0 0 0 0 0 0 0 127 0" result="hardAlpha"/>
<feOffset dy="2"/>
<feGaussianBlur stdDeviation="7"/>
<feComposite in2="hardAlpha" operator="arithmetic" k2="-1" k3="1"/>
<feColorMatrix type="matrix" values="0 0 0 0 0 0 0 0 0 0 0 0 0 0 0 0 0 0 0.26 0"/>
<feBlend mode="normal" in2="shape" result="effect1_innerShadow_111:839"/>
</filter>
<linearGradient id="paint0_linear_111:839" x1="163.154" y1="76.1638" x2="163.154" y2="143.039" gradientUnits="userSpaceOnUse">
<stop stop-color="white"/>
<stop offset="1" stop-color="#C4C4C4" stop-opacity="0"/>
</linearGradient>
<linearGradient id="paint1_linear_111:839" x1="148" y1="33.5" x2="158.992" y2="155.146" gradientUnits="userSpaceOnUse">
<stop stop-color="#546BFD" stop-opacity="0"/>
<stop offset="0.56264" stop-color="#546BFD" stop-opacity="0.3"/>
<stop offset="1" stop-color="#546BFD" stop-opacity="0.2"/>
</linearGradient>
<linearGradient id="paint2_linear_111:839" x1="115.979" y1="21.5262" x2="115.979" y2="92.2574" gradientUnits="userSpaceOnUse">
<stop stop-color="#495EE1" stop-opacity="0"/>
<stop offset="1" stop-color="#495EE1"/>
</linearGradient>
<linearGradient id="paint3_linear_111:839" x1="88.6439" y1="132.005" x2="186.316" y2="163.99" gradientUnits="userSpaceOnUse">
<stop stop-color="white"/>
<stop offset="1" stop-color="white" stop-opacity="0"/>
</linearGradient>
<linearGradient id="paint4_linear_111:839" x1="93" y1="44.5" x2="93" y2="137" gradientUnits="userSpaceOnUse">
<stop stop-color="#4654AC"/>
<stop offset="1" stop-color="#495EE1"/>
</linearGradient>
<linearGradient id="paint5_linear_111:839" x1="88.3916" y1="72.8206" x2="195.352" y2="105.534" gradientUnits="userSpaceOnUse">
<stop stop-color="white"/>
<stop offset="1" stop-color="white" stop-opacity="0"/>
</linearGradient>
</defs>
</svg>
