<svg width="27" height="20" viewBox="0 0 27 20" fill="none" xmlns="http://www.w3.org/2000/svg">
<path d="M1.36728 0.000133341C1.18864 -0.00236536 1.01129 0.0302759 0.845515 0.0961601C0.679744 0.162044 0.528865 0.259857 0.401647 0.383915C0.27443 0.507972 0.17341 0.655801 0.104459 0.818808C0.0355073 0.981815 0 1.15675 0 1.33345C0 1.51015 0.0355073 1.68508 0.104459 1.84809C0.17341 2.0111 0.27443 2.15893 0.401647 2.28298C0.528865 2.40704 0.679744 2.50485 0.845515 2.57074C1.01129 2.63662 1.18864 2.66926 1.36728 2.66676H25.6327C25.8114 2.66926 25.9887 2.63662 26.1545 2.57074C26.3203 2.50485 26.4711 2.40704 26.5984 2.28298C26.7256 2.15893 26.8266 2.0111 26.8955 1.84809C26.9645 1.68508 27 1.51015 27 1.33345C27 1.15675 26.9645 0.981815 26.8955 0.818808C26.8266 0.655801 26.7256 0.507972 26.5984 0.383915C26.4711 0.259857 26.3203 0.162044 26.1545 0.0961601C25.9887 0.0302759 25.8114 -0.00236536 25.6327 0.000133341H1.36728ZM1.36728 8.66668C1.18864 8.66419 1.01129 8.69683 0.845515 8.76271C0.679744 8.82859 0.528865 8.92641 0.401647 9.05047C0.27443 9.17452 0.17341 9.32235 0.104459 9.48536C0.0355073 9.64837 0 9.8233 0 10C0 10.1767 0.0355073 10.3516 0.104459 10.5146C0.17341 10.6776 0.27443 10.8255 0.401647 10.9495C0.528865 11.0736 0.679744 11.1714 0.845515 11.2373C1.01129 11.3032 1.18864 11.3358 1.36728 11.3333H25.6327C25.8114 11.3358 25.9887 11.3032 26.1545 11.2373C26.3203 11.1714 26.4711 11.0736 26.5984 10.9495C26.7256 10.8255 26.8266 10.6776 26.8955 10.5146C26.9645 10.3516 27 10.1767 27 10C27 9.8233 26.9645 9.64837 26.8955 9.48536C26.8266 9.32235 26.7256 9.17452 26.5984 9.05047C26.4711 8.92641 26.3203 8.82859 26.1545 8.76271C25.9887 8.69683 25.8114 8.66419 25.6327 8.66668H1.36728ZM1.36728 17.3332C1.18864 17.3307 1.01129 17.3634 0.845515 17.4293C0.679744 17.4951 0.528865 17.593 0.401647 17.717C0.27443 17.8411 0.17341 17.9889 0.104459 18.1519C0.0355073 18.3149 0 18.4899 0 18.6665C0 18.8432 0.0355073 19.0182 0.104459 19.1812C0.17341 19.3442 0.27443 19.492 0.401647 19.6161C0.528865 19.7401 0.679744 19.838 0.845515 19.9038C1.01129 19.9697 1.18864 20.0024 1.36728 19.9999H25.6327C25.8114 20.0024 25.9887 19.9697 26.1545 19.9038C26.3203 19.838 26.4711 19.7401 26.5984 19.6161C26.7256 19.492 26.8266 19.3442 26.8955 19.1812C26.9645 19.0182 27 18.8432 27 18.6665C27 18.4899 26.9645 18.3149 26.8955 18.1519C26.8266 17.9889 26.7256 17.8411 26.5984 17.717C26.4711 17.593 26.3203 17.4951 26.1545 17.4293C25.9887 17.3634 25.8114 17.3307 25.6327 17.3332H1.36728Z" fill="#000"/>
</svg>
